<?xml version="1.0" encoding="utf-8"?>
<!-- Generator: Adobe Illustrator 27.9.6, SVG Export Plug-In . SVG Version: 9.03 Build 54986)  -->
<svg version="1.1" baseProfile="basic" id="Layer_1"
	 xmlns="http://www.w3.org/2000/svg" xmlns:xlink="http://www.w3.org/1999/xlink" x="0px" y="0px" viewBox="0 0 2048.5 1824"
	 xml:space="preserve">
<g>
	<path d="M1652.7,933.6c5.3-75.4,3.5-150.9-0.1-226.3c-2.5-51-8.2-101.5-20.5-151.5c-5.2-21.4-16.5-33.1-35.2-39.9
		c-27.9-10.1-56.9-16-86.1-21.4c-29.5-5.5-52.4-21-65.1-48.8c-18.6-40.9,3.3-81.9,47.9-85.7c74.5-6.4,140.9,17.7,199.8,62
		c20.6,15.5,32.9,38.4,41.9,63.1c20.6,56.2,28.5,114.6,33.3,173.7c5.9,72.5,9.4,145.4,4.7,217.9c-5.7,87.5,3.8,174.7,0.7,261.9
		c-2.7,75.9-15,149.4-48.7,218.8c-31.5,65-81.8,105.9-149.9,125.7c-58.5,17-118.8,24.5-179.5,25c-148.3,1.1-296.7,3-444.9-3.5
		c-106.3-4.7-212.6-10.4-319-13.2c-66.7-1.7-129.3-19-185.3-59.9c-66.9-48.9-102.4-117.3-126.5-192.2
		c-22.7-70.6-29.8-144.6-32.4-218.8c-3.4-101,2.6-201.9,8.8-302.6c3.6-58.8,10.6-117.7,32.3-173.8c31.5-81.3,85.4-138.7,168.4-168.4
		c86.9-31,176.2-49.7,268.3-52c159-4,317.5,6,475.7,22.3c12.1,1.2,24.4,2,35.9,5.3c29.5,8.5,44.9,36.4,37.7,66
		c-12.1,50.1-29.1,62.7-82.1,63.3c-68.9,0.8-136.9-11.7-205.5-13.8c-123.7-3.8-247.7-15.9-371.1,5c-50.9,8.6-99.6,23.9-144.6,49.2
		c-50.1,28.1-80.6,70.4-87.6,128.2c-16.5,135.2-22.9,270.9-14.5,406.9c3.3,53.5,11.5,106.7,28.6,158.3
		c25.3,76.1,74.1,123.3,155.7,132.8c21.4,2.5,42.7,6.8,64.1,7c101,0.7,201.7,7.4,302.4,12.7c107.7,5.7,215.6,4.1,323.4,3.7
		c65.9-0.2,131.9,2.6,197.8-6.2c125.4-16.8,163.8-90,171.5-188.5C1659.3,1095.1,1649,1014.4,1652.7,933.6z"/>
	<path d="M1184.5,922.5c-63.6-58-130.5-101.5-203.8-138.1c-13.8,33.9-4.8,66.8-12,98.2c-6.1,26.5-14.4,51.6-24.5,76.6
		c-5.2,12.8-11.2,27.7-25.6,28.2c-15.3,0.6-25.2-12.7-33.8-25.2c-23.1-33.6-29.7-71.8-30.2-111.2c-0.4-30.9-0.7-61.6,3.8-92.6
		c3.6-24.9,3.1-50.8-1.7-76.3c-4.7-25.2,1.1-32.3,26.3-40.6c38.4-12.6,77-14.1,114,3.2c104.4,48.9,199,112.2,282.1,192.8
		c33,32,40.6,67.3,27.9,110c-16.5,55.3-45.7,99.1-98.4,126.8c-75.1,39.5-153.3,72.3-230.5,107.4c-31.3,14.2-56.7,0.8-81.9-17.5
		c-20.9-15.2-22.7-35.5-19.2-57.5c3.9-25,20.5-39.8,42.8-49.6c49.2-21.8,98.6-43.2,147.2-66.1C1107,972.2,1148.2,955.2,1184.5,922.5
		z"/>
</g>
</svg>
